<svg xmlns="http://www.w3.org/2000/svg" viewBox="0 0 100 100" width="100" height="100">
  <!-- Background circle -->
  <circle cx="50" cy="50" r="48" fill="#f97316" stroke="#fff" stroke-width="2"/>
  
  <!-- Menu icon (list with lines) -->
  <g fill="#fff">
    <!-- Top line -->
    <rect x="25" y="30" width="50" height="6" rx="3"/>
    <!-- Middle line -->
    <rect x="25" y="47" width="50" height="6" rx="3"/>
    <!-- Bottom line -->
    <rect x="25" y="64" width="50" height="6" rx="3"/>
  </g>
  
  <!-- Fork and Knife overlay -->
  <g fill="#fff" opacity="0.9">
    <!-- Fork -->
    <path d="M20 20 L22 20 L22 35 L24 35 L24 20 L26 20 L26 35 L28 35 L28 20 L30 20 L30 38 L26 38 L26 48 L24 48 L24 38 L20 38 Z"/>
    <!-- Knife -->
    <path d="M72 20 L76 20 L76 35 L78 38 L78 48 L74 48 L74 38 L72 35 Z"/>
  </g>
</svg>
